<svg id="组件" xmlns="http://www.w3.org/2000/svg" width="1024" height="1024" viewBox="0 0 1024 1024">
  <defs>
    <style>
      .cls-1 {
        fill: #4c69e4;
      }

      .cls-1, .cls-3 {
        fill-opacity: 0.8;
      }

      .cls-1, .cls-2, .cls-3, .cls-4 {
        fill-rule: evenodd;
      }

      .cls-2 {
        fill: #e058eb;
        fill-opacity: 0.85;
      }

      .cls-3 {
        fill: #06bbf1;
      }

      .cls-4 {
        fill: #00e2ee;
        fill-opacity: 0.9;
      }
    </style>
  </defs>
  <path id="中2" class="cls-1" d="M471.577,204.072L663.96,744.005l209.526-96.619L759.2,331Z"/>
  <path id="右1" class="cls-2" d="M660.151,744.005l227.74-361.849s57.434,14.814,97.037,49.164c88.882,101.3-9.9,175.025-9.9,175.025Z"/>
  <path id="中1" class="cls-3" d="M12.524,927.772l441.91-735.067L763.009,332.9,431.576,859.57,138.24,995.974c-26.243,11.3-103.768,2.011-125.716-68.2"/>
  <path id="左1" class="cls-4" d="M357.29,147.237L353.48,897.46,138.24,995.974c-34.779,12.036-83.276-5.851-108.573-37.89C11.4,934.861,3.875,905.157,4.9,905.038L3,736.427S3.032,172.219,4.9,137.765,33.886,81.144,39.191,75.246,73.477,54.407,73.477,54.407,96.464,46,103.954,46h32.381Z"/>
</svg>
